<svg xmlns="http://www.w3.org/2000/svg" data-name="Layer 1" viewBox="0 0 512 512" id="sun-behind-cloud"><path fill="#fdd402" d="M435.36688,199.18425c0,10.24845-21.134,17.02956-24.13665,26.277-3.112,9.584,9.89053,27.47264,4.08475,35.45-5.8638,8.05714-26.93335,1.187-34.99055,7.05074-7.97735,5.80561-7.92064,27.99623-17.50453,31.10809-9.24728,3.00256-22.20477-14.88588-32.453-14.88588-10.24844,0-23.20617,17.88836-32.45361,14.88568-9.584-3.112-9.52726-25.30264-17.50467-31.10842-8.05713-5.8638-29.12675,1.00609-34.99047-7.05111-5.80561-7.97735,7.19711-25.86574,4.08525-35.44963-3.00256-9.24729-24.1365-16.02827-24.1365-26.27652,0-10.24845,21.134-17.02956,24.13666-26.277,3.112-9.584-9.89053-27.47264-4.08476-35.45005,5.86381-8.05714,26.93335-1.187,34.99056-7.05074,7.97734-5.80561,7.92063-27.99623,17.50452-31.10808,9.24729-3.00257,22.20477,14.88587,32.453,14.88587,10.24845,0,23.20618-17.88836,32.45362-14.88568,9.584,3.112,9.52726,25.30264,17.50466,31.10842,8.05714,5.86381,29.12676-1.00609,34.99048,7.05112,5.8056,7.97734-7.19712,25.86573-4.08526,35.44962C414.233,182.155,435.36688,188.936,435.36688,199.18425Z"></path><path fill="#2c2b2d" d="M300.13135,306.92188a14.587,14.587,0,0,1-4.53418-.71778c-8.84131-2.87109-11.96875-12.542-14.728-21.07422-1.273-3.93554-3.19629-9.88281-4.87353-11.10351-1.73682-1.26465-8.05469-1.26563-12.23536-1.26563-8.90429-.002-18.99609-.00293-24.40673-7.4375-5.36719-7.375-2.2793-16.9209.44482-25.34375,1.29834-4.01465,3.26025-10.08105,2.57178-12.20215-.60742-1.87109-5.78858-5.62011-8.88379-7.86035-7.32129-5.29883-15.61963-11.30469-15.61963-20.73242s8.29834-15.43457,15.62012-20.7334c3.09521-2.24023,8.27588-5.98926,8.8833-7.86035.689-2.12109-1.27295-8.18848-2.57129-12.20312-2.72412-8.42286-5.81153-17.96875-.44385-25.34375,5.41065-7.4336,15.50195-7.43555,24.40527-7.43653,4.18067,0,10.499-.001,12.23536-1.26465,1.67773-1.22168,3.60156-7.16894,4.874-11.10449,2.75976-8.53223,5.88721-18.20312,14.72851-21.07324,8.56153-2.77734,16.60743,3.05469,23.707,8.20215,3.67675,2.666,8.7124,6.31738,11.06152,6.31738,2.34961,0,7.38525-3.65137,11.062-6.31738,7.1001-5.14746,15.14746-10.98242,23.708-8.20117,8.84082,2.86914,11.96826,12.54,14.728,21.07226,1.27246,3.93652,3.19629,9.88379,4.87353,11.10449,1.73633,1.26368,8.05469,1.26465,12.23535,1.26563,8.90381.001,18.99561.00195,24.40576,7.43652,5.36768,7.375,2.28028,16.92188-.44384,25.34375-1.29834,4.01465-3.26026,10.082-2.57178,12.20313.60742,1.87109,5.78809,5.62011,8.8833,7.86035,7.32129,5.29883,15.61963,11.30371,15.61963,20.73242,0,9.42773-8.29785,15.43359-15.61914,20.73242-3.0957,2.24024-8.27637,5.98926-8.88379,7.86035-.689,2.1211,1.273,8.18848,2.57129,12.20313,2.72412,8.42285,5.811,17.96875.44385,25.34375-5.41016,7.43457-15.50245,7.43652-24.40674,7.4375-4.18067,0-10.49854.001-12.23487,1.26465-1.67675,1.2207-3.60058,7.168-4.873,11.10351-2.75977,8.53223-5.88721,18.20313-14.728,21.07325-8.55957,2.78417-16.6084-3.05372-23.707-8.20118-3.67725-2.666-8.71289-6.31738-11.0625-6.31738-2.34912,0-7.38525,3.65137-11.062,6.31738C313.47314,302.22949,307.00146,306.9209,300.13135,306.92188Zm.063-15.00977h.00293c1.95166,0,7.37011-3.92871,10.30273-6.05469,6.21973-4.50976,12.65186-9.17285,19.8667-9.17285,7.21533,0,13.64746,4.66309,19.86719,9.17383,2.93213,2.125,8.35009,6.05371,10.30175,6.05371h.01319c1.667-.959,3.85986-7.74023,5.043-11.39746,2.30957-7.1416,4.69726-14.52539,10.31884-18.61719,5.68262-4.13476,13.49952-4.13476,21.05957-4.13574,3.77295-.001,10.75782-.002,12.26563-1.26074.68408-1.834-1.43018-8.37207-2.57275-11.90528-2.33838-7.22949-4.75635-14.70605-2.56592-21.45117,2.11767-6.52148,8.33887-11.02441,14.356-15.3789,3.00878-2.17774,9.26855-6.709,9.41357-8.58106-.14356-1.87207-6.4043-6.40332-9.41406-8.58105-6.0166-4.3545-12.2378-8.85743-14.35547-15.37891-2.18994-6.74512.228-14.22168,2.56592-21.45117,1.14257-3.53321,3.25732-10.07129,2.57324-11.9043-1.50879-1.25976-8.49268-1.26074-12.26514-1.26074-7.56006-.001-15.37744-.00195-21.05908-4.13672-5.62207-4.0918-8.01025-11.47559-10.31982-18.61719-1.17823-3.64453-3.35938-10.38769-5.05323-11.39844h-.00342c-1.95117,0-7.36962,3.92872-10.30175,6.05469-6.22022,4.51074-12.65186,9.17383-19.86719,9.17383-7.21484,0-13.64649-4.66309-19.8667-9.17383-2.93164-2.126-8.3501-6.05469-10.30127-6.05469H300.186c-1.66846.96-3.86133,7.74024-5.04395,11.39747-2.30957,7.1416-4.69775,14.52539-10.31982,18.61718-5.68164,4.13477-13.49952,4.13575-21.06006,4.13672-3.772.001-10.75537.002-12.26416,1.26074-.68457,1.833,1.43017,8.3711,2.57275,11.9043,2.33838,7.23047,4.75635,14.70606,2.56592,21.45117-2.11768,6.52149-8.33887,11.02442-14.35547,15.37891-3.01123,2.17969-9.27637,6.71387-9.41455,8.585.13965,1.86523,6.40381,6.39941,9.41406,8.57813,6.0166,4.35449,12.23828,8.85742,14.356,15.3789,2.18994,6.74512-.228,14.22168-2.56641,21.45117-1.14258,3.53223-3.25732,10.07129-2.57275,11.9043,1.50732,1.25879,8.49219,1.25977,12.26465,1.26074,7.56054.001,15.37842.002,21.06006,4.1377,5.62158,4.09082,8.00976,11.47558,10.31933,18.61621C296.31982,284.1582,298.50049,290.90137,300.19434,291.91211ZM427.8667,199.1875h0Z"></path><circle cx="330.367" cy="199.184" r="50" fill="#f7991d"></circle><path fill="#2c2b2d" d="M330.3667,256.68457a57.5,57.5,0,1,1,57.5-57.5A57.56486,57.56486,0,0,1,330.3667,256.68457Zm0-100a42.5,42.5,0,1,0,42.5,42.5A42.54815,42.54815,0,0,0,330.3667,156.68457Z"></path><path fill="#d9d8da" d="M473.82341,262.88755a50.73068,50.73068,0,0,0-91.41127-40.70587,48.19946,48.19946,0,0,0-63.77969,39.46381,42.89326,42.89326,0,0,0-36.15877,42.3911v.0001a42.8684,42.8684,0,0,0,42.82525,42.91142H461.67475A42.8684,42.8684,0,0,0,504.5,304.03669v-.0001A42.91041,42.91041,0,0,0,473.82341,262.88755Z"></path><path fill="#2c2b2d" d="M461.6748,354.44824h-136.376a50.4308,50.4308,0,0,1-13.16553-99.084,55.706,55.706,0,0,1,67.354-41.85645,57.99981,57.99981,0,0,1,45.98633-21.53613c31.23487.42285,56.9917,26.22461,57.41651,57.51562a58.87309,58.87309,0,0,1-.51416,8.60645,50.42187,50.42187,0,0,1-20.70118,96.35449ZM366.46094,226.96387a40.8056,40.8056,0,0,0-40.38819,35.625,7.49847,7.49847,0,0,1-6.27978,6.46582,35.41961,35.41961,0,0,0,5.50586,70.39355h136.376a35.42242,35.42242,0,0,0,10.02-69.36914,7.50007,7.50007,0,0,1-5.14013-9.041,43.37225,43.37225,0,0,0-41.28418-54.06836c-.19824-.002-.39795-.00391-.59522-.00391a43.08427,43.08427,0,0,0-36.01465,19.36426,7.49973,7.49973,0,0,1-8.73388,2.92773A40.53076,40.53076,0,0,0,366.46094,226.96387Z"></path><path fill="#2c2b2d" d="M394.03125 234.97168a7.46251 7.46251 0 0 1-3.97607-1.14648 40.48375 40.48375 0 0 0-9.79248-4.45313 7.49986 7.49986 0 1 1 4.33593-14.35937 55.43665 55.43665 0 0 1 13.42334 6.10351 7.5007 7.5007 0 0 1-3.99072 13.85547zM466.939 286.33789a7.50164 7.50164 0 0 1-6.24023-11.65137 40.58965 40.58965 0 0 0 5.81152-13.56347 7.49972 7.49972 0 1 1 14.63086 3.30468 55.53327 55.53327 0 0 1-7.94824 18.55957A7.49478 7.49478 0 0 1 466.939 286.33789z"></path><path fill="#e0e0e2" d="M327.88826,267.06815a85.47453,85.47453,0,0,0,2.62411-22.26655c-.62176-45.81074-38.03049-83.29658-83.74928-83.916a84.794,84.794,0,0,0-71.93017,38.02629A80.70325,80.70325,0,0,0,68.04278,264.98848,71.81874,71.81874,0,0,0,7.5,335.96643v.00017a71.77712,71.77712,0,0,0,71.70487,71.84915H307.547A71.77712,71.77712,0,0,0,379.2519,335.9666v-.00017A71.84743,71.84743,0,0,0,327.88826,267.06815Z"></path><path fill="#2c2b2d" d="M307.54688,415.31543H79.20508A79.36713,79.36713,0,0,1,61.46045,258.625,88.205,88.205,0,0,1,171.874,190.11914a92.49681,92.49681,0,0,1,166.1377,54.58106,93.3758,93.3758,0,0,1-1.40234,17.457,80.01505,80.01505,0,0,1,34.07275,25.90234,79.373,79.373,0,0,1-63.13525,127.25586ZM148.12549,201.86035A73.39071,73.39071,0,0,0,75.4834,265.93164a7.49846,7.49846,0,0,1-6.27979,6.46582,64.36247,64.36247,0,0,0,10.00147,127.918h228.3418a64.3671,64.3671,0,0,0,18.2124-126.05566,7.4998,7.4998,0,0,1-5.13965-9.041,78.0729,78.0729,0,0,0,2.39307-20.31543c-.56446-41.62988-34.81592-75.956-76.35108-76.51855a77.14979,77.14979,0,0,0-65.58008,34.67578,7.49972,7.49972,0,0,1-8.7334,2.92773A72.92766,72.92766,0,0,0,148.12549,201.86035Z"></path><path fill="#2c2b2d" d="M194.292 215.26855a7.46243 7.46243 0 0 1-3.97607-1.14648 72.79008 72.79008 0 0 0-17.61914-8.01172 7.49958 7.49958 0 1 1 4.334-14.35937 87.71918 87.71918 0 0 1 21.252 9.66211 7.50069 7.50069 0 0 1-3.99072 13.85546zM68.28906 272.34863a7.50077 7.50077 0 0 1-1.15088-14.91113 87.66993 87.66993 0 0 1 23.333-.50488 7.49969 7.49969 0 1 1-1.66894 14.90625 72.80021 72.80021 0 0 0-19.34375.41894A7.55668 7.55668 0 0 1 68.28906 272.34863zM316.36572 301.27344a7.5007 7.5007 0 0 1-6.23974-11.65137 73.01709 73.01709 0 0 0 10.45068-24.39453 7.49993 7.49993 0 0 1 14.63086 3.30664 87.93577 87.93577 0 0 1-12.58838 29.38867A7.49219 7.49219 0 0 1 316.36572 301.27344z"></path></svg>